<svg xmlns="http://www.w3.org/2000/svg" viewBox="0 0 320 320">
<path fill="#afa2c8" d="M0 0h320v320H0z"/><path fill="#786589" d="M0 231 320 194v126H0z"/>
<path fill="#557564" d="m217 0 103 0v182l-39 15-64-18z"/><path fill="#c4caa4" d="m237 0 3 167 63 7-2-174z"/>
<path fill="#35264e" d="m65 36 155 15-17 226-162-21z"/><path fill="#f7f1df" d="m58 30 157 13-17 224-160-22z"/>
<path fill="#e4d4b3" d="m184 40 31 3-3 35-17-13z"/><path stroke="#9cab8c" stroke-width="6" d="m78 76 87 7m-91 16 115 9m-117 14 78 7m-69 56 63 6"/>
<path fill="none" stroke="#b86743" stroke-width="4" stroke-linecap="round" d="m67 216 12-17-4 21 19-12 3 12 19-6 5 8 34-5"/>
<path fill="#eadfc4" d="m186 130 93 13-16 143-91-12z"/><path fill="#f7f1df" d="m193 126 93 13-16 143-91-12z"/>
<path fill="none" stroke="#786589" stroke-width="3" stroke-dasharray="5 7" d="m207 151 55 6-11 90-53-6z"/>
<path fill="#b86743" d="m0 263 35-13 43 2 18 13-5 13-34-1-18 9-39 6z"/>
<path fill="#203d37" d="m0 269 18-5 12 33-30 10z"/><path fill="#d2b38b" d="m320 234-36-7-17 12 8 13 15 0 12 16 18 5z"/>
<path fill="#35264e" d="m312 229 8 1v61l-22-15z"/><path fill="#c7f36b" d="m224 278 45-5 1 10-45 5z"/>
</svg>
