<svg xmlns="http://www.w3.org/2000/svg" viewBox="0 0 320 320"><rect x="0" y="0" width="320" height="320" fill="#557564"/><g transform="translate(20 46) scale(1.6)"><path d="M0 0 42 20 55 10 52 33 78 38 123 0 102 46 64 57 55 84 46 57 13 34z" fill="#223d37"/><path d="m47 25 12-16 13 7-5 14-15 9z" fill="#d2b38b"/><path d="m60 19 14 7-14 4z" fill="#f7f1df"/></g><path d="M191 151h89l12 137h-96Z" fill="#eadfc4"/><path d="M202 163h66l11 90h-72Z" fill="#769d9b"/><path d="M220 181 245 195 225 218 257 234" fill="none" stroke="#f7f1df" stroke-width="4" stroke-linecap="round" stroke-linejoin="round"/><circle cx="257" cy="234" r="5" fill="#b86743"/><path d="M207 130v-20m-8 12 8-12 8 12" fill="none" stroke="#f7f1df" stroke-width="3" stroke-linecap="round" stroke-linejoin="round"/></svg>
