<svg xmlns="http://www.w3.org/2000/svg" viewBox="0 0 320 320"><rect x="0" y="0" width="320" height="320" fill="#557564"/><g transform="translate(59 27) scale(1.37)"><path d="M0 0h129v185H0z" fill="#f7f1df"/><path d="M18 31h82M18 53h93M18 76h70M18 111h94M18 135h57" fill="none" stroke="#9cab8c" stroke-width="5" stroke-linecap="round" stroke-linejoin="round"/></g><circle cx="113" cy="141" r="30" fill="#35264e"/><circle cx="113" cy="141" r="23" fill="#eadfc4"/><circle cx="196" cy="130" r="30" fill="#35264e"/><circle cx="196" cy="130" r="23" fill="#eadfc4"/><path d="M139 135 170 132m-86 1-22-26m161 15 11-24" fill="none" stroke="#35264e" stroke-width="5" stroke-linecap="round" stroke-linejoin="round"/><path d="m106 221 17-17 3 22 22-9 13 13 31-8" fill="none" stroke="#b86743" stroke-width="3" stroke-linecap="round" stroke-linejoin="round"/></svg>
