<svg xmlns="http://www.w3.org/2000/svg" viewBox="0 0 320 320"><rect x="0" y="0" width="320" height="320" fill="#9cab8c"/><circle cx="252" cy="64" r="36" fill="#eadfc4"/><path d="M0 94 81 175 70 320H0M320 89 241 175 252 320h68Z" fill="#557564"/><path d="M84 145 233 159 263 320H58Z" fill="#afa2c8"/><path d="M0 151h320v31H0Z" fill="#d2b38b"/><path d="M0 135h320M22 135v47M83 135v47M239 135v47M301 135v47" fill="none" stroke="#223d37" stroke-width="6"/><path d="M30 182h29v96H30M262 182h29v96h-29Z" fill="#223d37"/><path d="M89 116h104v22H89Z" fill="#35264e"/><path d="M103 118 185 54 198 58 136 118Z" fill="#f7f1df"/><circle cx="112" cy="142" r="9" fill="#35264e"/><circle cx="179" cy="142" r="9" fill="#35264e"/></svg>
