<svg xmlns="http://www.w3.org/2000/svg" viewBox="0 0 320 320"><rect x="0" y="0" width="320" height="320" fill="#9cab8c"/><circle cx="252" cy="64" r="36" fill="#eadfc4"/><path d="M0 181 70 132 170 190 251 116 320 176V320H0Z" fill="#557564"/><path d="M0 263 130 211 206 241 320 209V320H0Z" fill="#223d37"/><path d="M0 189 136 90 278 189Z" fill="#b96642"/><path d="M27 188h222v132H27Z" fill="#eadfc4"/><rect x="70" y="216" width="48" height="52" fill="#35264e"/><path d="M175 161V39M140 56h68M134 80h80M131 105h92" fill="none" stroke="#223d37" stroke-width="5"/><path d="M259 49q-28 26 0 52M284 24q-49 51 0 99" fill="none" stroke="#f7f1df" stroke-width="3"/></svg>
