<svg xmlns="http://www.w3.org/2000/svg" viewBox="0 0 320 320"><rect x="0" y="0" width="320" height="320" fill="#9cab8c"/><rect x="35" y="28" width="250" height="266" fill="#eadfc4"/><path d="M44 62 120 46 158 139 107 221 49 208Z" fill="#9cab8c"/><path d="M184 45 268 75 270 234 173 266 150 198Z" fill="#9cab8c"/><path d="M157 25 123 95 170 159 138 298" fill="none" stroke="#35264e" stroke-width="5"/><g transform="translate(57 188) scale(0.8)"><path d="M0 0h80l13 38H-12Z" fill="#35264e"/><path d="M23 0 20 38M52 0 56 38M-6 18h92" fill="none" stroke="#eadfc4" stroke-width="2"/><path d="M4 39v10M73 39v10" fill="none" stroke="#35264e" stroke-width="4"/></g><g transform="translate(185 81) scale(0.7)"><path d="M0 0h80l13 38H-12Z" fill="#35264e"/><path d="M23 0 20 38M52 0 56 38M-6 18h92" fill="none" stroke="#eadfc4" stroke-width="2"/><path d="M4 39v10M73 39v10" fill="none" stroke="#35264e" stroke-width="4"/></g><g transform="translate(190 201) scale(0.65)"><path d="M0 0h96v137H0Z" fill="#f7f1df"/><path d="M15 25h65M15 43h55M15 61h65M15 79h40" fill="none" stroke="#557564" stroke-width="5"/></g><circle cx="82" cy="79" r="21" fill="#557564"/><path d="M70 79 79 88 97 68" fill="none" stroke="#eadfc4" stroke-width="4"/></svg>
