<svg xmlns="http://www.w3.org/2000/svg" viewBox="0 0 320 320"><path fill="#9cab8c" d="M0 0h320v320H0z"/><circle fill="#eadfc4" cx="253" cy="67" r="38"/><path fill="#557564" d="m0 226 71-58 65 25 81-75 103 95v107H0z"/><path fill="#223d37" d="m0 276 92-39 97 14 131-41v110H0z"/><path fill="#f7f1df" d="m28 106 84-30 92 32 86-28-9 197-84 21-96-34-72 20z"/><path fill="#9cab8c" d="m39 143 45-32 35 15 42-5 21 37-14 73-48-27-34 28-46-26zm153 10 45-31 39 25-14 83-39 22-37-32z"/><path stroke="#557564" stroke-width="4" fill="none" d="m110 78-9 183m103-151-8 186"/><path stroke="#b86743" stroke-width="5" stroke-dasharray="9 7" fill="none" d="m51 243 41-44 53 17 51-53 51 17"/><circle fill="#b86743" cx="196" cy="163" r="8"/></svg>
