<svg xmlns="http://www.w3.org/2000/svg" viewBox="0 0 320 320"><rect x="0" y="0" width="320" height="320" fill="#eadfc4"/><path d="M0 211 85 157l80 38 155-18v143H0z" fill="#769d9b"/><path d="m0 258 103-29 43 91H0z" fill="#557564"/><path d="m92 111 48-7 19 24-12 49-30 14-32-36z" fill="#d2b38b"/><path d="m86 127 11-50 39 2 29 45z" fill="#35264e"/><path d="m84 177 42 8 14 98-86 8z" fill="#b86743"/><path d="m119 192 71 20-4 16-67-13z" fill="#d2b38b"/><path d="m188 213 42 18-13 50" fill="none" stroke="#223d37" stroke-width="6" stroke-linecap="round" stroke-linejoin="round"/><path d="m200 277 37-1-5 28h-25z" fill="#f7f1df"/><rect x="210" y="285" width="15" height="12" fill="#769d9b"/></svg>
